<?xml version="1.0" encoding="utf-8"?>
<!-- Generator: Adobe Illustrator 26.5.0, SVG Export Plug-In . SVG Version: 6.00 Build 0)  -->
<svg version="1.1" id="Layer_1" xmlns="http://www.w3.org/2000/svg" xmlns:xlink="http://www.w3.org/1999/xlink" x="0px" y="0px"
	 viewBox="0 0 1920 1080" style="enable-background:new 0 0 1920 1080;" xml:space="preserve">
<style type="text/css">
	.st0{fill:#B7B7B7;}
</style>
<g>
	<path class="st0" d="M381.3-78.5c0.7-3.2,4.7-2.5,7.6-2.3c44.5,3.9,89.1,5.8,133.7,4.7c37.7-0.9,75.6-2.2,112.7-8.8
		c53.5-9.5,100.7-30.2,143.5-57.1c53-33.3,105.3-67.4,154.6-104.4c6.8-5.1,14.6-9.4,20.1-15.6c3.3,0,6.6,0,9.9,0
		c13,11.5,28.8,20.5,43.7,30.1c35.1,22.8,70.5,45.3,109.2,63.9c34.6,16.7,70.3,31.9,110.6,38c20.5,3.1,41.4,3.7,62.1,4.7
		c35.8,1.7,71.8,2.4,107.7,1.4c49-1.4,98.2-2.3,144.5-18c5.8-2,7.1,0.8,8.4,4.3c9.2,23.9,18.2,47.9,27.7,71.8
		c14.3,35.9,26.9,72.4,47.1,106.4C1659,99,1708,147.6,1779.9,179c32.1,14,64.8,27,98.3,38.7c7.2,2.5,7.9,4.9,4.8,10.3
		c-18.8,32.6-34.1,66.3-45.3,101.2c-10.6,32.9-12,66-5.6,99.5c6.5,33.8,13.5,67.4,25,100.3c13.8,39.4,36.4,75.4,63.3,109.9
		c24.9,31.9,50.8,63.2,77.6,94.1c3,3.5,5.9,6.9,4.5,11.6c-1.3,4.3-2.7,2.7-9.8,6.8c-3.2,1.9-6,1.8-8.3,3.6
		c-31.7,25.5-64,50.4-98.2,73.7c-16.5,11.3-33.4,22.3-52.5,30.8c-21.5,9.7-35.5,25-46.1,42.3c-22.1,36-42.4,72.6-56.3,111.3
		c-6.1,17.1-8.4,34.8-4.8,52.7c0.6,3.1,0.1,6.1-1.7,9.1c-4.3,7.2-5.2,7.5-13.9,3.5c-3.2-1.4-6.3-2.7-10.1-1.9
		c-67.1,12.5-133.8,26-196.4,50.1c-31,12-57.2,29.6-82.7,47.8c-40.3,28.9-76.9,60.7-108.8,95.9c-18.2,20-34,41.4-54,60.3
		c-9.3,8.8-19,17.2-27.9,26.2c-4,4-8.8,0.9-12.9,2.2c-6.9,2.2-7-2.4-8.4-5.5c-1.2-2.5-3.4-4-6-5.3c-48.4-23.7-99-42.8-155.5-50.4
		c-27.1-3.6-54-2.4-81,0.5c-58.6,6.3-117.3,12.7-175.5,21.2c-55.6,8.1-107.5,24.3-158.8,42.6c-8.3,2.9-13.7,0.5-14.1-7
		c-0.1-2.1-1.4-3.8-2.8-5.4c-39.5-48.5-77.4-97.9-123.2-142.9c-14.5-14.2-29.2-28.3-44.5-41.9c-28.5-25.3-64.2-40.2-105.4-47.3
		c-47.6-8.2-93.5-20.7-138.1-36.5c-6.3-2.2-11.2-2.5-16.4,1.3c-3.4,2.5-6.6,3.5-10.1-0.5c-3.5-4.1-3-6.7,2.3-9.1
		c3.8-1.7,5.9-3.9,5.3-8c-8-56.1-16-112.3-27.4-168.1c-6.5-32-13.6-63.9-31.3-93.4c-27.3-45.6-61.8-86.6-110.5-119.3
		c-27.2-18.3-52.5-38.3-78.7-57.5c-5.1-3.7-10.1-7.5-15.3-11.1c-1.4-1-3.2-2-4.9-2.2c-5.2-0.4-9-0.7-9.8-6.4
		c-0.7-4.3,0.3-6.9,3.8-9.8c33-28.2,64.2-57.6,92.5-89c28.2-31.3,50.2-64.9,63.1-102.4C79,372.2,90.9,339.1,100,305.2
		c7.6-28.3,6.5-56.3,0.4-84.5c-1.8-8.5-3.4-17.1-5.1-25.6c-0.8-4-1.5-6.6-2.7-10.7c-0.8-2.8-0.8-2.8-1.5-6.1
		c-0.4-1.7,0.2-2.2-0.4-3.8c-2.6-6.7,1.9-7.6,8.8-8.2c56.3-5.5,112.6-10.7,168.7-17.1c50.4-5.8,94.6-42.9,102.4-84.1
		c4.1-21.7,5.5-43.6,6.8-65.6c0.9-14.8,1-29.7,2-44.5 M-55.2,614.5c-0.3,1.8,1.5,2.3,2.6,3.2c21.4,15.9,42.4,32.2,64.5,47.4
		c34.5,23.9,66.9,49.1,91.6,80.4c27.6,35,50.9,71.3,60.9,112.6c15.6,64.5,24.8,129.6,34.3,194.8c0.4,2.4-0.3,5.5,2.6,6.7
		c3.1,1.3,5.4-1.5,7.8-2.8c25.2-14.2,50.3-28.5,75.5-42.7c19.7-11.2,39.4-22.5,59.2-33.6c4-2.3,6-4-0.3-6c-4.8-1.5-3.6-5-3.1-8
		c7-42.5,12.1-85,7.5-127.9c-2.3-21.3-7.9-41.5-27.4-57.7c-9.2-7.6-17.8-15.7-27.4-23c-61.6-46.7-125-91.8-190.8-134.6
		c-8-5.2-16.2-7.7-26.2-7.8c-40.8-0.4-81.7-1-122.5-1.5C-49.3,613.9-52.3,613.4-55.2,614.5z M1861.1,238.1
		c-4.5,1.2-7.4,1.8-10.2,2.6c-56,15.5-111.9,31.3-168,46.5c-9.9,2.7-16.4,6.8-21.1,14.2c-5.9,9.3-11.7,18.6-16.1,28.4
		c-13.6,30.2-17.6,61.1-3.7,91.8c19.8,43.8,43.5,86.2,70.9,127.2c7.6,11.5,14.9,23.4,26,33c22.4,19.4,45.2,38.6,67.9,57.9
		c18.2,15.4,36.6,30.6,54.6,46.1c7.3,6.3,7,6.5-2.3,10.3c-8.1,3.3-16.2,6.6-24.3,9.9c48.3,15.6,98.5,21.3,147.5,31.7
		c0.4-2.9-1.2-4-2.3-5.3c-23.5-27.6-46.8-55.2-68.7-83.6c-23-29.8-44.4-60.1-58.7-93.5c-18.6-43.6-28.9-88.7-35.9-134.3
		c-2.5-16.3-4.7-32.6-2.7-49c4.1-33.1,15-64.9,29.2-96C1848.9,263.8,1854.8,251.6,1861.1,238.1z M947.4-146.6
		c-8.1,7.3-15.4,13.8-22.7,20.4c-22.8,20.5-48.8,38.2-73.8,56.8c-20,14.9-41.3,28.5-64.7,39.7C740.4-7.9,690.7,5,638.7,12
		c-56.1,7.6-112.4,13.2-168.3-1.3c-1.6-0.4-3.3-0.9-4.5,0.4c-1,1.2-0.6,2.6,0.3,3.8c0.8,1.1,1.7,2.3,2.7,3.3
		c37.1,38.2,74.2,76.3,111.2,114.6c3.4,3.5,7.5,5.5,12.8,6.5c25.4,4.9,51.1,8.2,77.1,9.6c22.2,1.2,44.5,0.8,65.8-5.6
		c48.9-14.7,96-32.5,140.7-54.4c8.1-4,16.7-7.7,22.5-14.3c15.8-17.9,33.8-34.4,52.2-50.4c6.9-6,9-11.9,8.4-19.6
		c-3-37.8-5.2-75.7-8.5-113.4C950.2-120.9,950.8-133.2,947.4-146.6z M1686.6,1066.9c-5.6-2.8-9.3-4.6-13.1-6.4
		c-45-22.1-90.8-43-135.2-65.9c-3.2-1.7-6.1-1.4-9.4-0.9c-35.1,5.6-69.2,13.6-102,25.3c-36.5,13.1-70.2,29.6-95,55.5
		c-52.7,54.9-98.7,113.5-143.5,172.7c-1.8,2.3-3,4.6-1.8,7.5c11,28.3,21.9,56.7,33,85.1c2.1,5.4,5.1,5.7,9.8,1.3
		c9.1-8.6,17.8-17.4,26.8-26.1c17-16.6,30.3-35.3,46.2-52.6c31.8-34.4,67.5-65.9,107.1-94.5c27-19.5,54.8-38.3,87.6-51.3
		c43-17.1,88.6-28.3,134.7-38.5C1649.3,1074.4,1667.1,1070.9,1686.6,1066.9z M1201.5,1333.5c-0.7-2.7-0.9-4-1.4-5.2
		c-8.3-21.6-16.7-43.2-24.9-64.8c-1.7-4.5-4.8-7.6-9.5-10.3c-43-24.7-87.1-47.8-133.1-68.6c-23.7-10.7-47.4-22.6-74.5-25.8
		c-56.3-6.7-109.9,1.6-158.8,25.6c-38.9,19.1-74.4,42.4-110.9,64.3c-2.8,1.7-4.5,3.8-5.4,6.5c-8.8,25-23,48.4-34.5,72.6
		c-2.8,5.9-6.7,11.4-8.1,17.9c1.2,0.1,1.7,0.2,2.2,0.1c2.8-0.8,5.7-1.6,8.4-2.6c46-16,93.2-28.6,142.6-35.7
		c56.7-8.2,113.7-14.2,170.7-20.4c32.6-3.6,64.8-4.3,97.2,1.1c44.5,7.3,85.8,21.2,125.4,38.9
		C1191.2,1328.9,1195.6,1330.9,1201.5,1333.5z M1557.8,991.2c7.7,3.8,15.5,7.5,23.2,11.3c40.5,19.5,81,39,121.5,58.5
		c2.1,1,4.1,2.7,6.7,1.7c2.5-0.9,2.1-3,1.9-4.7c-2.4-17.3,1.3-34.2,7.4-50.5c14.1-38.1,34.1-74.4,55.9-110
		c14.1-23,34.6-41.4,63.3-53.2c5.3-2.2,10-5.4,14.8-8.3c40.3-25,77-53.3,113.2-82.1c2.1-1.7,6-3.1,5.3-5.5c-0.7-2.5-5-2-7.8-2.6
		c-47.3-9.5-95.7-15.5-141.5-29.6c-4.7-1.4-8.5-0.3-12.4,1.7c-9.8,4.9-19.8,9.5-29.4,14.6c-33.8,18.2-66.8,37.3-91.8,63.9
		c-17,18.1-29,38.7-41.8,58.7c-26.6,41.5-51.6,83.7-75.7,126.2C1567.8,985.8,1565.4,990.2,1557.8,991.2z M626.4,1341
		c8.7-17.2,16.8-32.7,24.3-48.4c5.5-11.5,11.7-22.4,12.9-35.6c4.4-48.7-10.9-91.4-53.5-126.7c-24.7-20.5-52.2-38.6-80.1-56.1
		c-33.8-21.2-69.6-40.2-103-61.9c-16.3-10.6-34.3-19.1-52.9-26.8c-4.5-1.9-8.9-4.1-14.4-0.8c-46.9,28.2-95.4,54.4-143,81.8
		c-1.8,1.1-4.7,1.6-4.5,4.5c41,14.5,83.1,26.4,126.9,33.8c48.7,8.2,90.8,25.5,124.3,55.7c50.2,45.4,94.2,94.6,134.8,145.8
		C607,1317.5,616.2,1328.5,626.4,1341z M1539.3-124.8c-11.3,11.7-21.5,22.1-31.4,32.6c-20.4,21.7-42.2,42.5-61.3,65
		c-2.9,3.4-4.6,6.8-4.1,11.1c1.7,13.1,5.3,25.8,11.9,37.9c16.9,30.7,38.7,59.2,60.5,87.6c25.1,32.8,51.4,65.1,86.4,91.8
		c26.1,19.9,54,38.3,82.4,56c10.4,6.5,10.4,6.5,2.4,15.4c-0.2,0.2,0.3,0.7,0.4,1.1c10.4-1.8,169.1-46.3,174.9-49.2
		c-7.5-2.9-14.6-5.6-21.8-8.3c-32.1-12-63.9-24.7-93.5-40.3c-54.5-28.9-94.1-68.8-124.9-114.5c-25.5-37.8-39.3-79.3-56.1-119.9
		C1556.3-79.9,1548.3-101.5,1539.3-124.8z M963.9-141.8c0,6.3-0.3,10.7,0,15.1c1.4,19.2,3,38.5,4.4,57.7c1.9,26.1,3.5,52.2,5.3,78.3
		c0.3,4.5,1.8,8.7,4.9,12.5c15.5,18.8,34,35.2,56.3,49c28.3,17.5,61.3,26.4,94.8,34.2c35.1,8.2,71,11.1,107.4,6.8
		c29.9-3.6,58.8-10.7,87.9-16.9c6.9-1.5,11.5-4.3,15.3-9.1c26.8-34.1,53.7-68.1,80.8-101.9c4.8-5.9,8.2-11.9,8.9-18.9
		c0.1-1.6,1.8-3.7-0.6-4.9c-1.8-0.9-3.6,0.5-5.3,1.1c-35.8,12.9-72,25.1-109.1,35.3c-21.5,5.9-42.9,12.3-66,13.3
		C1220.5,11,1194,5,1169.4-6c-61.3-27.4-115.3-62.8-166.8-101C988.9-117.2,977.1-128.8,963.9-141.8z M1518.1-121.5
		c-0.4-0.5-0.9-1-1.3-1.5c-6.3,1.3-12.5,2.8-18.9,3.8c-39.4,6.1-79.5,6.4-119.4,7.5c-35,1-70.1-1.2-105.1-2.6
		c-17.2-0.7-34.5-1.6-51.4-4.4c-40.3-6.7-76.6-21.4-111.3-38.4c-51.2-25.1-97.7-55.5-143.9-86.2c-2.9-1.9-5.5-5.7-10.4-3.6
		c-4.8,2-3.1,5.8-2.8,9c1.6,17.7,4,35.3,4.8,53c0.6,13.7,6,25.1,16.5,35.8c23.3,24.1,50.2,45.1,79.7,64.1
		c38.6,24.9,77,50,120.8,68.9c33.5,14.4,68.3,19.2,105.5,9.8c52.1-13.2,102.2-30.6,152.4-47.8c22.5-7.7,40.7-17.9,54.1-34.6
		C1496.5-100.4,1507.7-110.7,1518.1-121.5z M1429.8-5.3c-1.8,1.9-2.7,2.7-3.4,3.5c-20.9,26.3-41.5,52.7-62.7,78.9
		c-5,6.2-7.2,12.2-7.3,19.7c-0.2,26.9,0.1,53.7,6.9,80.1c5.7,22.1,13.8,43.5,33.7,60.4c17.9,15.3,36.4,30.1,54.2,45.5
		c25.5,21.9,55.7,37.7,90.2,48.7c7.2,2.3,12.5,2,19-1.2c32.1-16.1,64.5-31.9,96.8-47.8c7.1-3.5,10.4-9.6,15-14.7
		c2.2-2.4-1.2-4-3.2-5.3c-5.6-3.6-11.4-7-16.8-10.6c-31.1-21-63.2-41.1-89-66.8c-31.2-31.1-57.8-64.7-82.4-99.3
		C1460.4,57.2,1437.4,29.5,1429.8-5.3z M228.8,606.6c-6.3-3.8-6.3-4.1,1.9-7c10.9-3.8,21-8.7,31-13.6c38.2-18.8,72.9-40.9,98.9-70.9
		c16.3-18.8,28.9-38.7,30.7-62.1c1.8-23,0.4-46.1,0.8-69.1c0.1-3.3-2.7-4.5-5.7-5.9c-43.9-19.5-87.9-39-131.8-58.6
		c-6-2.7-8-1.7-8.4,3.9c-2.9,37.4-15.6,72.8-34.6,106.8c-32,57.1-78.7,105.7-133.3,149.7c-9.8,7.9-9.1,7.1,0.9,14.9
		c11.3,8.8,24.4,10.8,38.9,11c13.4,0.2,26.8,0.4,40.2,0.8C182.2,607.1,206,606.6,228.8,606.6z M1642.1,303.5c-2.4,1.1-4.8,2-7.1,3.2
		c-22.7,11.2-45.2,22.6-68.1,33.5c-7.2,3.4-12.2,7.9-16,13.8c-10,15.3-18.7,31.1-25.4,47.6c-6.8,16.5-11.1,33.5-10.1,50.9
		c1.2,19.7,4.4,39.2,4.3,59c-0.2,27,10.8,49.9,35.8,68.8c24.6,18.6,48.8,37.7,70.9,58.3c14.1,13.1,30.4,21.3,51.3,26.2
		c37.3,8.8,74.1,19.3,110.4,30.4c18,5.5,33.5,6.8,49.7-2.9c6-3.6,6.4-4.9,1.4-9c-31.9-26.5-63.7-53.2-95.3-79.9
		c-12.1-10.3-23.7-20.8-32.5-33.3c-30.8-43.6-55.9-89.4-78.9-135.9c-14.5-29.2-16.8-58.9-7.3-89.3
		C1629.7,330.9,1636.3,317.6,1642.1,303.5z M1520,983.4c-23.8-14.7-45.9-28.4-68.1-42.1c-1.2-0.8-3-2.1-4.1-0.5
		c-2.4,3.4-5.7,1.7-8.7,1.3c-37-5.3-74.1-9.3-111.9-5.9c-20.1,1.8-40.4,4.5-55.9,15.5c-38.8,27.7-77.3,55.8-112.5,86.6
		c-18.7,16.3-30,35.3-33.1,57.4c-0.4,3-0.2,5.7,0.9,8.5c16.8,42.2,33.7,84.4,50.5,126.6c0.6,1.6,0.5,3.6,3.5,4.4
		c1-1.2,2.1-2.5,3.1-3.8c28.9-37.7,58.1-75.2,89.6-111.5c17.3-19.9,34-40.4,54-58.6c33.9-30.9,77.9-49,125.1-62.7
		C1473.9,992.3,1495.9,987.5,1520,983.4z M472.3,40.3c-0.5,0.3-1.1,0.5-1.6,0.8c1.2,9,2.7,18,3.4,27c1.6,19.9,2.5,39.8-4.6,59.4
		c-12.7,35-35.8,65.4-62.8,94.3c-38.4,41-89.3,64.5-151.5,72.8c-2.9,0.4-7.2-0.7-7.7,3.3c-0.4,3.6,1.4,6.2,5.6,8.1
		c47.8,21.2,95.6,42.4,143.3,63.7c2.7,1.2,5.5,1.7,8.6,1.5c17.2-1.6,34.1-4.3,50.6-8.4c35.5-8.8,62.9-25.5,78.6-53.4
		c10-17.6,17-36,22.4-54.8c9.1-31.8,12.4-64.3,16.4-96.7c1.1-8.9-1.7-16-8.9-23.1c-21.5-21.3-42.1-43.1-63.1-64.7
		C491.6,60,481.9,50.1,472.3,40.3z M1671.7,675.2c7,8.1,7,8-3.1,11.6c-10.5,3.8-21,7.5-31.5,11.5c-25.3,9.7-49.8,20.6-72.6,33.8
		c-7.6,4.4-15.1,9-20.3,15.4c-29.7,36.7-61.6,72.4-86.1,111.7c-9.5,15.3-16.8,31.3-18.9,48.6c-0.7,5.6-1.3,10.8,5.6,14.9
		c29.6,17.9,58.9,36.2,88.4,54.3c9.4,5.7,22.2,2.8,27.1-5.8c30.2-52.7,61.4-105,95.8-156.1c12.1-17.9,26.6-34.1,44.9-48.1
		c27-20.6,57-38.1,89-53.4c2-1,5.4-1.6,5.1-3.8c-0.3-2.2-3.8-2.1-6-2.7c-36.3-10-72.6-20-109-30
		C1678,676.6,1675.6,676.1,1671.7,675.2z M71.2,603.9c-6.9-4.4-12-8.1-17.7-11.2c-5.9-3.2-6.4-5.7-0.8-9.6
		c14.1-9.9,27.1-20.6,39.8-31.7c42.9-37.6,79.4-78.6,105.8-125.2c19.3-34,31-69.5,34.5-106.9c0.7-7.1-1.7-12.4-8-17.7
		c-28.6-24.2-56.5-48.9-84.8-73.4c-8.8-7.6-17.8-15.1-27.9-23.7c0.8,4.6,1.3,7.7,1.9,10.7c5.5,28.1,8.7,56.1,1.7,84.6
		c-10.4,42.5-25.1,84-41.2,125.2c-8.1,20.7-19.2,40-33.2,58.4c-26.7,35.1-58.4,67-92.3,97.6c-7.2,6.5-14.4,13-22.7,20.4
		C-25,602.3,22,603.1,71.2,603.9z M116.7,618.3c33.7,20.8,65.1,43.5,96.8,66.1c37.2,26.6,75.6,52,109.4,81.5
		c11.7,10.2,23.5,20.4,29.6,34c11.2,25.1,12,51.4,11.5,77.5c-0.5,28.1-3.1,56.2-8.3,84.1c-0.9,4.9,3.7,7.4,9.3,5.1
		c2.2-0.9,4.1-2.2,6-3.5c28.4-18.1,56.6-36.4,85.3-54.3c6.2-3.9,9.1-8.3,10-14.3c2.8-18.7,3.8-37.5,3.9-56.4
		c0.3-63.9-34.1-114-93.4-154c-35.1-23.6-74.8-41.8-113.5-61.2c-4.2-2.1-8.7-2.3-13.4-2.4c-23.8-0.7-47.6-1.7-71.4-2.2
		C158.1,618,137.9,618.3,116.7,618.3z M231.2,290.7c1.7-5.1,1.7-5.2,6-5.9c3.2-0.5,6.5-0.8,9.7-1.2c47.2-5.7,89.9-18.9,124.2-47
		c25.3-20.7,46-44,62.8-69.5c17.4-26.3,29.9-53.8,27.2-84.4c-1.6-18.3-3.9-36.6-7.4-54.8c-1.1-5.7-3.4-10.5-7.8-15
		C433.3,0.1,421-13,408.3-25.8c-4.2-4.2-7.7-9-13.2-12.4c-2.9,2.6-2.2,5.4-2.2,7.9c-0.4,29.7-3,59.3-6.7,88.9
		c-6.6,52.7-58,96.1-122.8,103c-49.1,5.2-98.4,9.8-147.5,14.7c-3.2,0.3-7.1,0-8.6,2.9c-1.6,3.2,1.3,5.4,3.7,7.6
		c1.5,1.3,3.1,2.5,4.5,3.8c20.2,17.5,40.3,35.1,60.5,52.6C194.2,258.9,212.4,274.5,231.2,290.7z M536.1,8c35.7,0.9,71-2.8,106.1-8.1
		c53.8-8.1,105.6-21.3,150.7-47c56.4-32.2,105.4-71.3,150.5-113.5c2.3-2.1,3.1-4.6,2.8-7.4c-1.7-16.1-3.3-32.2-5-48.3
		c-0.6-5.8-1.4-11.5-2.3-18.3c-4.1,2.7-7.2,4.6-10,6.7c-50.4,36.6-102.5,71.5-157,103.9c-39,23.2-81.9,40.3-129.2,49.5
		c-34.3,6.7-69.3,8.4-104.3,9.4c-45.2,1.3-90.4,0.5-135.5-2.7c-8.2-0.6-10.1,1.1-8.4,7.7c0.6,2.3,2.2,4,3.9,5.7
		c9.3,9.6,18.6,19.2,27.9,28.8c7.1,7.2,14.2,14.5,21.5,21.9 M1165.4,1238.9c-17.7-44.5-34.8-87.3-51.8-130.1
		c-1.2-3.1-4.1-4.5-7.5-5.6c-13.9-4.7-27.7-9.7-41.6-14.3c-41.1-13.5-82.3-27-125.4-35.9c-16.2-3.4-32.1-4.2-48.4,0.8
		c-52.7,16.1-102.3,37.5-152.3,58.1c-4.6,1.9-6.5,5-7.8,8.8c-11.1,31.5-22.4,63-33.5,94.6c-1.7,4.8-4.1,9.5-4.4,14.6
		c3.8,0.7,5.5-1.5,7.5-2.7c17.7-10.4,35.6-20.7,53-31.5c41.9-26,87.6-44.2,140.7-49.2c34.9-3.3,68.8-2.5,101.3,9.9
		c20.8,8,41.3,16.4,61.2,25.8C1093.1,1199.5,1128.4,1218.5,1165.4,1238.9z M678.3,1224.7c1.3-2.8,1.8-3.8,2.2-4.7
		c12.5-34.9,24.9-69.8,37.4-104.7c1.3-3.6,0.7-6.9-0.7-10.3c-12-28.4-26.6-55.9-44.5-82.1c-16.2-23.9-35.3-45.9-65-60.5
		c-40.7-20-84.1-35.3-129.1-47.5c-4.3-1.2-7.7-1-11.4,1.4c-27.9,17.9-55.8,35.8-83.8,53.5c-5.2,3.3-4.4,5.3,1.1,7.4
		c23,9.1,43.3,21.5,63.7,33.9c53,32.5,108.2,62.7,157.2,99.4c26.4,19.8,47.7,42,60.4,69.4C672.1,1193.7,675.9,1208.1,678.3,1224.7z
		 M1424.8,909.9c3.8-34.5,23.6-62.6,44.6-90.2c18.1-23.8,37.5-46.9,56.1-70.4c10.6-13.4,24.7-23.5,40.9-32.2
		c24.6-13.1,50.8-23.7,77.2-33.9c3.3-1.3,9.2-1.5,8.9-4.8c-0.4-4.1-5.2-7.1-9.8-9.2c-2.1-1-4.7-1.2-7.1-1.6
		c-41.1-6.7-82.2-13.3-123.2-20.1c-4.6-0.8-8.4-0.3-12.5,1.5c-27.5,12.1-53.9,25.6-79.1,40.6c-19.6,11.7-39.7,23.7-51.3,41.6
		c-20.9,32.2-43.3,63.7-60,97.6c-2.4,4.8-1.2,7.5,3.7,10.6c22.6,14,44.9,28.4,67.3,42.6C1394.9,891.1,1409.3,900.2,1424.8,909.9z
		 M1115.9,1075.2c0.5-0.7,1.2-1.4,1.5-2.2c6.3-19.6,21.7-34.6,38.4-48.8c29-24.6,60-47.4,90.8-70.4c12.1-9.1,24.5-17.5,40.5-22.2
		c32.3-9.5,65.7-8.5,99.1-7c11.2,0.5,22.3,2.1,33.4,3.1c1.8,0.2,4.2,0.9,5.2-0.8c1.3-2.1-1.5-3-3-4.1c-0.8-0.6-1.7-1.1-2.6-1.6
		c-40.1-25.4-80.3-50.8-120.4-76.3c-3.3-2.1-6.8-3.6-10.9-4.5c-18.4-4.1-37-6.3-56.1-5.3c-25.4,1.3-47.4,8.6-64.3,24.5
		c-9.7,9.1-19.5,18-29,27.2c-23.6,22.6-47,45.2-56,74.9c-1.3,4.3-3.3,8.5-5.6,12.5c-2.5,4.4-2.1,8.4-0.2,12.8
		c12,27.8,23.8,55.8,35.7,83.6C1113.2,1072.2,1113.1,1074.2,1115.9,1075.2z M726.7,1091.2c2.1-0.5,2.4-1.6,2.8-2.6
		c18.7-40,37.4-80.1,56-120.1c4-8.5,4.2-17.3,2-26.2c-4.6-18.9-18.5-33-36.5-44.5c-30.8-19.8-67.4-31.3-102.3-45.1
		c-18.4-7.3-37.5-13.7-57.1-18.8c-4.2-1.1-7.5-1.2-11.2,1.4c-30,21.8-60.1,43.4-90.2,65.1c-1.5,1.1-3.9,1.8-3.7,4.4
		c1.7,0.5,3.4,1.1,5.2,1.6c32.8,9.5,65.1,20.1,95.8,33.5c20.3,8.9,40.4,17.9,56.7,31.5c28.2,23.5,45.9,52.3,62.5,81.6
		C714,1065.4,720.1,1078.4,726.7,1091.2z M1016.7,824.6c6.3-8.9,11.3-16.6,17.1-23.8c3.4-4.3,5.2-8.6,4.8-13.7
		c-0.8-10.7,1.1-21.1,4.2-31.6c2.8-9.2,7.4-18.3,6.8-27.9c-0.6-11.1-1.7-22.1-3.1-33.1c-1.4-10.8-1.8-21.7-5.9-32.2
		c-1.4-3.4-2.7-4.1-5.9-1.6c-4.9,3.8-10.8,6.2-17.6,6.3c-6.1,0-8.6,2.7-10.2,7c-3.4,9.4-8.4,18.3-14.7,26.7
		c-4.2,5.6-9.5,10.3-17.9,11.9c-15.5,2.9-30.8,6.3-46.4,8.7c-18.3,2.8-37.1,5.3-54.7-2.2c-12.3-5.2-24.2-11.3-35.2-18.4
		c-9.2-6-16.3-13.1-20.6-22c-0.9-1.8-1.4-3.7-4-4.7c-13-5.3-27.8-3.5-38.1,5c-24.8,20.4-49.5,40.9-74.2,61.4
		c-6.7,5.5-6.6,5.7,2.6,8.2c27,7.5,53.7,15.3,79.6,25.2c15.1,5.8,27.9,13.7,38.8,24.1c7.8,7.4,14.2,15.6,21.2,24.2
		c3-3.3,3.5-6.3,4.5-9.3c7.4-22.7,14.7-45.5,22-68.2c1.2-3.8,11.1-35.7,18.3-34.1c6.3,1.4-2.9,32.3-4.3,36.7
		c-8.2,24.8-16.2,49.8-24.2,74.6c-0.8,2.4-2.1,4.8-1.5,8c14.2-4.4,28.2-7.6,41.7-11.7c33-9.9,64-6,94.3,6.9c2.2,0.9,4.8,3.3,7.3,1.5
		c2.1-1.5,0-3.8-0.5-5.6c-7.9-27-15.8-53.9-24-80.8c-1.3-4.3-12.9-43-7-44.1c5.9-1.1,20,37.3,21,41.5c1.7,6.7,3.8,13.4,5.8,20.1
		C1003.2,779.4,1009.8,801.4,1016.7,824.6z M1105,1090c-0.5-2.1-0.6-3.2-1-4.2c-13.9-32.7-27.9-65.3-41.8-98c-1.1-2.6-3-4.6-5.8-6.2
		c-25.8-15.1-52.9-28.5-82.8-37.7c-18.2-5.6-36.5-8-56.2-3.9c-39.8,8.2-77.1,21.4-114.5,34.6c-4.4,1.6-6.7,4.2-8.3,7.7
		c-16.6,35.7-33.4,71.3-50,107c-1,2.1-3,4.3-1.6,6.9c3.4,0.3,5.8-1.4,8.4-2.5c14.5-5.8,28.9-11.8,43.3-17.6
		c30.6-12.4,61.7-24,93.9-33.6c14.6-4.3,29.2-4.8,44.4-2.1c35.5,6.3,69.3,16.5,103,27.1C1058.6,1074.4,1081.1,1082.1,1105,1090z
		 M1341.3,106.7c-1.8,1.6-2.5,2-2.9,2.5c-29,36.6-57.9,73.2-87,109.8c-2.7,3.4-3.4,6.7-2.2,10.7c6.5,22.7,13.6,45.2,23.1,67.2
		c6.5,15,16.2,28,30.7,38.7c15.2,11.3,31.8,21.1,49.2,29.9c4.1,2.1,7.6,2.3,12.3,1.1c30.4-8,59.9-18.5,92.2-21.4
		c13.1-1.2,26-3.5,40.3-5.4c-30.4,26.9-72.7,31-111.7,43c7.8,4.2,14.5,7.3,20.4,11.2c5.6,3.6,10.3,3.3,16.3,0.5
		c35.6-16.6,71.5-32.9,107.2-49.3c1.7-0.8,4.3-1,4.4-3.7c-1.6-0.6-3.3-1.3-5-1.9c-23.8-8.3-46.3-18.2-65.9-32.2
		c-21.8-15.6-41.6-32.8-61.6-49.8c-8.7-7.4-18.1-14.2-25.2-22.8c-17.6-21.2-25-45.1-29.6-69.9C1342.8,146,1341.7,127,1341.3,106.7z
		 M978.6,41.2c-2.6,2.8-1.5,4.8-1.4,6.7c0.9,9.3,1.8,18.5,2.7,27.8c2.4,26.3,4.6,52.6,7.1,78.9c0.5,5.3,1.9,10.2,6.5,14.7
		c22.6,22.2,51.2,35.2,86.2,40.2c49.2,7,98.3,13.1,148.5,8c5.9-0.6,9.4-2.3,12.4-6.2c20.7-26.4,41.7-52.6,62.6-79
		c6.3-7.9,12.4-15.9,20-25.6c-62.9,15.6-123.6,25.3-187.2,11.7C1074,105.1,1017.8,85,978.6,41.2z M587.6,159.4
		c-2.6,19-4.6,36.2-7.4,53.3c-4.9,30.4-12.7,60.2-26.2,89c-16.5,35.1-45.6,59.4-90.3,70.9c-12.4,3.2-25.2,5.3-37.9,7.9
		c0.9,2.2,3,2.4,4.6,3.1c27.1,11.6,54.7,22.6,81.3,34.9c15.9,7.3,32.5,8.9,49.1,5.5c50.4-10.1,87.6-33.3,106.6-73.6
		c2-4.3,0.7-6.3-3.7-8.6c-4-2.1-9.1-3.5-11.7-8.4c3.4,0.6,5.8,0.9,8.2,1.3c12.6,2.5,12.2,2.5,15.2-8c5.8-20.6,5.1-41.4,4.8-62.2
		c-0.1-4.9-1.7-8.9-5.4-12.8c-18.6-19.5-36.9-39.1-55.3-58.7C609.3,182.2,598.9,171.4,587.6,159.4z M1327.9,616.9
		c-3.3-1.7-3.3-1.7-6.4-1.1c-6.2,0.8-9.5,0.9-16.1,4.1c-42.8,20.5-79.5,45.1-93.5,86c-1.4,4-2,6.7,1.9,10.1
		c5.9,5.2,11.3,10.9,14.3,17.7c1.3,3.1,3.4,6.5-0.2,9.4c-3.6,2.9-8.1,1.8-12.4,0.8c-2.7-0.6-4.8-2-6.8-3.5
		c-10.8-8.4-10.4-8.2-17.7,2.8c-3.4,5.1-1.7,7.9,3.3,11.1c8.7,5.8,16.9,12,25.2,18.1c23.3,16.8,46.6,33.6,69.8,50.6
		c4.3,3.2,6.8,3.4,9.2-1.6c14.5-30.8,35.6-58.9,53.7-88.2c4.3-6.9,9-13.6,15.2-19.7c15.8-15.3,35.1-27.3,55-38.7
		c18.9-10.9,38.7-20.7,60.5-31.2c-3.9-0.8-5.4-1.2-7-1.4c-43.9-6.4-87.8-12.9-131.8-19.2 M481.9,889c3.9-0.2,5.7-2.1,7.6-3.5
		c26.4-19,52.5-38.2,79.3-56.9c11.5-8,15.5-17.7,16.1-29.3c1.7-27.8-12.1-51.5-30.1-73.9c-28.8-36-67.5-64.3-108.8-90.8
		c-17.6-11.3-35.2-20.1-58.8-15.6c-0.8,0.1-1.6,0-2.5,0c-30.1,0.1-60.3,0.2-90.4,0.4c-2.6,0-5.4-0.7-8.7,1.2c4,2,7.7,3.8,11.3,5.6
		c27.9,14.1,56,28,81.9,44.4c78.8,50.1,113.8,115.6,104.7,196.5C482.9,874.5,482.5,881.7,481.9,889z M600.7,152.5
		c-0.5,2.1,1.2,2.9,2.1,3.9c27,28.8,54.5,57.3,81,86.4c7.4,8.1,16.3,11.6,28,13c23.1,2.7,45.9,0.5,68.8-1.5
		c42.1-3.8,81.1-14.7,116.2-34.2c2.5-1.4,5.1-2.6,4.1-5.7c-5.2-16.3-7.4-33.2-15.1-48.9c-8.2-16.7-13.8-34.1-18-51.8
		c-1.3-5.6-2.3-6.1-8.1-3.4c-31.6,14.4-64.8,25.9-97.9,37.8c-34.7,12.5-70.6,14.7-107.7,11.4C636.1,157.8,618.4,155.3,600.7,152.5z
		 M301.9,608.5c0-0.5,0-0.9,0-1.4c32.9,0,65.7-0.8,98.5,0.3c17.5,0.6,30-4.9,41.2-14.4c22.8-19.2,38-42.2,50.6-66.4
		c14.5-27.8,24.2-56.5,23.6-87c-0.1-4.4-1.5-7.4-6.8-9.5c-31.9-13.3-63.6-26.8-95.3-40.4c-5.9-2.5-8-2.2-7.9,3.7
		c0.3,18.4,0,36.8,0.1,55.2c0,10.3-2.2,20.3-6.1,30c-10.8,27-30.8,49.2-54.7,69.5c-25,21.2-54.6,37.5-85.5,52.4c-2,1-5.4,1.3-5,3.7
		c0.4,2.4,3.7,3.2,6.2,3.7c2.3,0.5,4.9,0.5,7.3,0.5C279.4,608.5,290.7,608.5,301.9,608.5z M1622.5,653.7c-0.3-3.5-3-4.5-4.8-6.1
		c-23.6-21-48.7-40.9-73.9-60.6c-25.8-20.2-38.1-44.3-38.1-73.1c0-13-0.7-26.2-2.7-39.1c-4.4-28.8-0.6-56.5,12-83.7
		c5-10.9,10.8-21.5,17.2-33.5c-3.8,1.4-6.1,2.1-8.2,3.1c-30.8,14-61.4,28.3-92.4,42c-9,4-13.3,9-15,17.3
		c-7.5,35.3-12.3,70.7-7.1,106.5c3.7,25.7,14.6,48.6,39.8,65.8c18.4,12.6,36.6,25.4,53.9,39c3.7,2.9,8,4.3,13.1,5.1
		c21,3.3,41.9,6.9,62.8,10.3C1593.4,649.1,1607.7,651.3,1622.5,653.7z M1402.4,416.6c-1.6,0.2-2.2,0.1-2.7,0.3
		c-39.2,14.9-78.3,29.9-117.4,44.8c-2.8,1.1-5.3,2.4-6.8,4.6c-17.3,25.1-25.1,51-9.2,78.7c6,10.5,14,20,21.8,29.7
		c5.5,6.8,12.3,11.4,22.2,13.7c8.9,2.1,17.4,5.3,26.1,8c12.3,3.8,25,7,35.3,13.9c7.5,5,15.9,7.5,25.3,8.6c8.4,1,16.7,2.3,25.1,3.6
		c19,2.8,38.1,5.5,57.1,8.3c0.5-0.6,1.1-1.1,1.6-1.7c-2.7-1.8-5.4-3.5-8.1-5.3c-9.8-6.8-19.4-13.7-29.3-20.4
		c-21.7-14.7-36.4-32.8-43.3-55.1c-8.8-28.6-8.9-57.5-5.1-86.5C1396.9,446.8,1399.8,431.9,1402.4,416.6z M989.9,184.4
		c0,4.6-0.2,7.5,0,10.3c2.1,31.4,4.4,62.8,6.4,94.2c0.2,3.1,2,5.4,4.3,7.7c8.9,8.6,19.5,15.6,30.5,22.2c17.1,10.3,35.8,17,58,15.3
		c22.2-1.7,43.7-5.6,65-10.9c7.6-1.9,13.1-4.7,16.3-10.8c2.6-5.1,6.6-9.7,9.9-14.6c14.1-20.8,28.1-41.6,42.3-62.3
		c3.2-4.7,2-6.4-4.6-5.9c-7.1,0.5-14.2,0.9-21.3,1.2c-37,1.7-73.1-3.7-109.3-8.4c-23.7-3.1-46.6-7.8-67.1-18.5
		C1010,198.4,1000.9,191.8,989.9,184.4z M1053,965.4c-1.5-4.2-2.4-6.7-3.3-9.2c-11.3-30.3-23.7-60.4-33.5-91.1
		c-4.9-15.3-14.1-25.2-32-31.5c-20.6-7.2-41.4-12.3-63.7-8.1c-20.5,3.9-40.5,9.5-60.1,15.8c-6.1,2-9.5,5.2-11.6,10.2
		c-13.6,34-27.5,67.8-41.2,101.7c-0.9,2.2-2.9,4.3-1.3,7.2c1.9-0.6,3.6-1.2,5.3-1.8c30.1-10.7,60.7-20.3,92.2-28.1
		c26.4-6.5,51.8-5.3,77.1,3C1005.7,941.7,1028.6,952.5,1053,965.4z M444.9,607.3c45.9-3.4,90.5,0.5,135.3-3.2
		c-1.3-3.8-5.8-3.7-6.2-6.5c2-1.8,4.7-1.3,6.9-1.1c10,0.9,17.1-2.7,23.7-8.4c12.7-10.8,24.3-22.3,34.2-34.8
		c12.7-16,19.2-33.5,20.3-52.7c0.6-10.3-3.1-16.4-15.6-19c-3.6-0.8-7-2.6-10.4-3.9c-31.7-12.1-63.4-24.2-95-36.5
		c-5.9-2.3-7.3-1.4-7.6,3.8c-0.4,7.7-1.3,15.5-2.9,23.1C516.8,520.4,491.4,566.9,444.9,607.3z M800.3,934.2
		c12.7-31.1,24.7-60.3,36.7-89.5c1-2.4,1.1-4.8-0.2-7.1C823.2,815.1,806.3,795,777,784c-24.6-9.3-50.4-16.1-75.6-24.2
		c-13.8-4.4-23.3-3.4-32.3,6.2c-5.7,6-14.3,10.3-15.1,19c-0.4,4.1-1.7,8.3-5,11.8c-1,1-1.8,2.6-3.7,2c-1.9-0.6-1.4-2.2-1.3-3.5
		c0.2-3,0.6-6,1.1-10.6c-15.4,12.3-29.5,23.6-43.6,35c-4.3,3.5-0.3,4.4,2.8,5.3c40.2,11.9,78.4,27.4,116.4,43.3
		C755.3,882.8,785.7,901.1,800.3,934.2z M442.3,618.1c2.9,2,3.8,2.7,4.9,3.4c32.7,19.5,63.6,40.8,89.8,66
		c35,33.7,64.6,69.5,62.9,116.8c15.1-11.7,29.6-23,44.2-34.3c2.4-1.9,2.7-4.2,3-6.7c1.2-11.5,2.3-23,4-34.4
		c3.3-22.4,14.9-42.5,28.2-62c5.3-7.8,4.8-9.5-4.6-14.4c-20.2-10.7-40.7-21-60.4-32.2c-9.2-5.2-18.1-7.5-29.2-5.2
		c-5.8,1.2-11.9,1.6-17.9,1.7c-38.4,0.6-76.7,1-115.1,1.4C449.7,618.1,447.3,618.1,442.3,618.1z M1066.3,960.8
		c0.6,0,1.3-0.1,1.9-0.1c1.9-4.4,4-8.7,5.7-13.1c5.3-14.2,13.8-26.9,25-38.7c17.2-18.1,35.9-35.2,53.9-52.8
		c26.3-25.9,60.2-34.7,100-32.2c5.3,0.3,10.5,0.7,16.9,1.1c-1.4-1.5-1.8-2.3-2.6-2.8c-27.5-20-55.2-39.8-82.6-59.9
		c-6.4-4.7-13.3-6.2-21.6-5.9c-11.8,0.4-23.6,0-35.2,1.8c-15.6,2.3-31.3,4.5-44.8,12.2c-5.8,3.3-8.6,7.5-8.9,13.4
		c-0.4,8.4-0.9,16.9-2.8,25.1c-5.6,24.2-15.2,47.6-25.7,70.7c-3.7,8.1-4.4,15.4-1,23.7C1052.2,922.2,1059,941.5,1066.3,960.8z
		 M709.5,267.7c23.7,22.4,46.6,44.2,69.6,65.8c6,5.7,10.4,13.3,18.9,16.3c20,7.2,41.2,10.2,63.3,9c19.5-1.1,35.1-9.4,50.8-17.5
		c4-2,4.1-4.9,3.5-8.1c-6-30.3-8.1-60.7-6.8-91.4c0.1-2.2-0.2-4.4-0.6-6.6c-0.8-4.4-2.6-6.3-8.5-3.2c-12.6,6.7-25.8,12.6-39.7,17.4
		C812.2,265.8,762.1,269.4,709.5,267.7z M1340.1,373.4c-10.6-6.3-20.6-12-30.4-18c-25.2-15.4-43.7-34.5-53-59.4
		c-6.2-16.6-12.3-33.1-17.5-49.9c-0.6-2-0.3-4.4-3.4-5.9c-1.1,1.4-2.1,2.7-3,4c-15.7,23.1-31,46.5-47.3,69.3
		c-16.6,23.2-14.2,46.9-3,70.4c8,16.7,26.2,27,42,38.5c3.5,2.6,5.5,0,7.5-1.6c16.5-13.5,36.8-22.1,58.1-29.6
		C1306.6,385.4,1323,379.5,1340.1,373.4z M996.6,310.5c0,4.5,0,7.2,0,9.8c0,29.1-0.2,58.1,0.1,87.2c0.1,9-3.4,18.7,5.5,26.7
		c0.5,0.4,0.7,1.3,0.5,1.9c-2.6,9.5,6.2,11.7,14.1,14c14.6,4.3,29.9,5.1,45.3,5.5c6.6,0.2,10.5-1.4,13.8-6.2
		c19.7-28.9,39.8-57.7,59.7-86.5c6.2-8.9,12.3-17.9,19-27.6c-12.7,2.5-23.8,4.9-35,6.8c-34.9,6.1-68.2,4.8-97.4-14.4
		C1014.3,322.4,1006.4,317,996.6,310.5z M560.9,437.5c30.7,11.7,61.5,23.2,92,35.2c21.4,8.4,41.6,5.6,61.1-3.4
		c23.6-10.9,35.7-29.3,46.8-48.4c3.9-6.6,3.7-11.1-3.8-15.8c-6.2-3.9-11.4-8.9-16.6-13.8c-14.8-14.2-32.4-25.7-51.3-36.1
		c-5.2-2.9-7.6-2.5-10,2.5c-7.7,16.1-18.5,30.7-34.4,42.4C620.6,417.7,593.5,431,560.9,437.5z M1301,607.4c-0.7-3.4-4.2-3.7-7.4-4.3
		c-14.8-2.4-29.9-2.9-44.8-4.3c-27.5-2.5-55-4.9-82.4-7.5c-4.6-0.4-8.2,0.1-7,4.5c3.9,14.5-5.7,21.1-21.3,24.3
		c-0.8,0.2-1.5,0.5-2.3,0.7c-16.9,5.8-17.8,8.6-6.7,20.7c0.3,0.4,0.7,0.7,1,1c19.9,18,38.9,36.7,60.6,53.4c7.8,6,8.3,6.2,11.8-2.3
		c9.7-23.1,25.9-42.4,49.5-57.6c13.7-8.9,27.9-17.2,43-24.5C1297.3,610.6,1300.1,609.9,1301,607.4z M961.6,34.3
		c-0.7-0.2-1.4-0.4-2.1-0.6c-14.4,13.2-29.6,26-42.1,40.5c-9.9,11.5-22.6,19.8-37.4,26.3c-6.5,2.9-7.6,5.9-4.1,11.1
		c7,10.5,14,21.1,20.2,32c9.7,17.3,18.9,34.9,28,52.5c2.4,4.6,4.1,4.5,8.5,1.5c10.8-7.5,20.1-16.3,30.4-24.3c9-7,10.8-14.5,9.7-23.9
		c-2.5-22.3-4.3-44.6-6.4-66.9C964.8,66.5,963.2,50.4,961.6,34.3z M1271.2,575.3c-3.2-4.2-6.3-8.1-9.1-12
		c-11.1-15.5-20.1-31.7-18.8-50.2c1.2-16.8,6.2-32.8,16.4-47.6c2-3,3.5-5.8-1.4-7.8c-4.8-1.9-8.2-8.4-15.3-3.5
		c-17.8,12.3-38.3,21.3-58.1,31.2c-14.1,7-28.5,13.7-43,19.5c4.7,8.1,18.6,9.5,19.3,18.6c0.7,8.1-1.5,16.3-2.7,24.4
		c-1.4,9.4-1.3,9.9,10.7,9.6c32.3-0.7,63.2,3.7,92.3,15.6C1264.1,574.3,1267,575.8,1271.2,575.3z M1158.3,353.7
		c-20.3,29.3-40.7,58.7-61,88c-2.3,3.3-4.1,6.8-6.8,9.9c-3.3,3.8,0.6,4.7,4.2,5.9c-2.7,1.7-4.5,3.1-6.6,4c-6.4,2.9-6.2,5.5-0.9,9.5
		c10.2,7.6,20.4,13.4,34.1,5.4c0.9-0.5,2-0.7,3.1-0.9c31.4-6.2,57.6-20.1,82-36.5c10.6-7.1,10.4-6.9-0.3-14.4
		c-18.7-13.3-35.8-27.5-42.1-48C1161.6,369.1,1160.8,361.4,1158.3,353.7z M609.9,600.1c3.6,0,4.9,0.1,6.2,0
		c28.5-3.1,57.1-5.9,85.5-9.5c17-2.2,35.2-0.4,46.8-16.3c9.2-12.6,18.7-24.9,25.4-38.5c2.8-5.6-0.2-7-6.7-6.8
		c-18.1,0.5-36.2,1.1-54.2,0.8c-14.4-0.2-28.3,2-42.4,3.2c-3.9,0.3-4.8,2.4-6,4.7c-4.4,9.1-10,17.7-17,25.8
		C636.7,576.2,625,588.1,609.9,600.1z M812.9,366.7c1.2,2.2,1.6,3.5,2.4,4.6c22.9,28.6,45.9,57.2,68.8,85.8c2.1,2.6,4.8,4.2,8.6,4.6
		c7.6,0.7,15.1,2,22.8,1.7c9-0.4,10.7-1.8,8.8-9c-2.2-8.7-3.6-17.5-4-26.3c-1-21.5-1.2-42.9-2-64.4c-0.1-3.4,2.2-8.1-1.6-9.9
		c-3.2-1.4-7.1,2.4-10.5,4.2c-17.4,8.9-36.1,13.3-56.8,12.8C837.6,370.4,826.2,368.5,812.9,366.7z M705.4,487.3
		c21.6,5.6,43.2,11.2,64.8,16.7c2,0.5,4.4,0.4,6.5,0.2c19.4-1.6,38.9-1.4,58.3-0.7c11.6,0.4,17.6-3.3,22.4-11
		c2.4-3.8,2.2-5.6-2.7-7.7c-11-4.8-20.5-11-25.6-20.7c-9.5-18.3-26.7-31.1-46.8-41.7c-4.4-2.3-6.5-2-8.5,2
		C760.1,451.4,740.6,474.2,705.4,487.3z M973.5,180.5c-10.6,9.9-20,19-31.9,25.6c-10.5,5.9-10.4,12.5-8.3,21.6
		c6.2,26.9,13.6,53.8,10.6,81.5c-0.4,3.8-0.7,7.6-1.2,13.3c13.4-10,25.1-18.7,36.7-27.4c2.2-1.6,2.7-3.6,2.5-6
		c-1.5-23.2-2.2-46.4-4.5-69.6C976.2,207.1,977.6,194.4,973.5,180.5z M697.2,273.8c-0.6,0.2-1.2,0.3-1.9,0.5c0,3.1,0,6.1,0,9.2
		c-0.1,16.9-2,33.7-7.2,50c-1.8,5.8,0,7.9,6.7,9.2c27,5.2,47.8,18,64.7,35.4c2.7,2.8,5.5,5.5,8.4,8.2c1.4,1.3,2.4,3.6,4.7,3.4
		c3-0.3,2.7-3,3.3-4.8c2.5-7.7,4.5-15.5,7.1-23.2c1.4-4.1-0.1-7.1-3.5-10.2c-12.3-11.3-24.2-22.9-36.3-34.3
		C727.8,302.7,712.5,288.2,697.2,273.8z M696.5,725.6c9-6.8,18.6-14,28.1-21.2c18.6-14.3,33.8-31.4,55.7-42.9c1.3-0.7,2.4-1.8,3.1-3
		c10.5-17.7,7.2-35.6-9-50.5c-3.4-3.1-5.3-2.8-8.1,0.3c-13.9,15.7-27.3,31.6-41.9,46.8C704.2,676.3,700.2,701.3,696.5,725.6z
		 M982.7,377C982.7,377,982.8,377,982.7,377c0.1-20.6,0.1-41.2,0.1-61.8c0-1.5,0.9-3.4-1.2-4.2c-2.1-0.8-3.5,0.9-4.8,1.9
		c-7.2,5.1-13.6,11.2-21.5,15.3c-12.4,6.4-14.3,15.5-14.4,26.1c-0.2,16.2,5,31.4,9.6,46.9c4.4,15.1,7.5,30.4,11.3,45.5
		c0.4,1.6-0.8,4.5,3.3,4.4c6.3-0.1,17.8-9.8,17.8-15.1C982.7,416.4,982.7,396.7,982.7,377z M1099.3,637.5
		c-6.9,1.8-14.1,3.9-21.5,5.5c-4.4,0.9-4.8,2.7-4,5.8c1.7,6.6,4.5,12.5,11,17.3c9.3,6.8,17.9,14.3,26.8,21.6
		c19.7,16,39.4,32,59.2,48c1.7,1.4,3.2,4.2,6.6,2.9c6.6-2.6,9.5-17.6,4.6-22.3c-26.1-25-53-49.6-77.2-75.9
		C1103.5,639,1102.5,637.2,1099.3,637.5z M1365,388c-13,3.5-28.3,5.9-40.5,13.1c-21.2,12.5-41.2,26.3-61.6,39.7
		c-1.7,1.1-3.3,2.3-1.5,4.4c4,4.8,12.7,6.8,19.4,4.2c13.6-5.2,27.2-10.4,40.8-15.5c23.5-9,47-18,70.5-26.9c5-1.9,7-3.4,0.8-6.2
		c-5.7-2.7-10.9-5.9-16.4-8.8C1373.4,390.3,1370.6,388,1365,388z M1080.7,681c-1,5.7,0.7,12,1,18.4c0.8,17.3-1.5,34.4-3.9,51.6
		c-0.3,2.2-1.8,4.9,0.5,6.3c2.5,1.5,4.9-1,7.3-1.9c12.4-4.2,25.4-7,38.7-8.5c11.4-1.3,22.8-2.2,35-3.3
		C1132.5,722.2,1106.6,701.6,1080.7,681z M624.4,611c1.3,1.3,1.6,2,2.3,2.3c21,11.3,42,22.5,62.8,33.9c3.9,2.2,4.8-0.2,6.3-1.8
		c11.7-12.6,22-25.9,29.9-40.4c0.8-1.5,3.1-3.1,1.3-4.8c-1.4-1.3-3.6-0.4-5.5-0.2c-19.3,2.1-38.5,4.1-57.7,6.3
		C650.9,607.8,638,609.4,624.4,611z M1146.2,529.8c1.1-3,0.2-4.7-1.7-6.3c-16.2-14.4-20.5-15.2-42.9-7.8c-2.8,0.9-5.6,1.8-8.3,2.9
		c-8.5,3.4-9.5,5.6-5.5,12.5c10.2,17.3,29.4,23.3,51,26.2c4.3,0.6,4.8-2,5-4.6C1144.6,544.8,1145.5,536.8,1146.2,529.8z
		 M813.3,566.5c-7.2,0.2-13.3,2-17.4,7.3c-4.1,5.3-8.2,10.5-12.9,15.4c-3.6,3.7-3,6.6,0.6,9.9c15.3,14.1,25.7,29.4,17.9,49
		c-1.4,3.5,1,3.7,4.5,2.6c8.3-2.8,5.5-8.5,5-13.2c-1.1-11.7-4-23.4-0.9-35c2.6-9.5,7.1-18.6,10.4-28
		C822.9,567.8,821.6,566.6,813.3,566.5z M1074,565.7c11.9,13,21.8,25.7,31.2,38.7c8.6,11.8,8.6,11.8,23.8,6.4c2.8-1,5.5-2.1,8.4-2.8
		c8.7-1.9,8.1-7.1,7.9-12.6c-0.2-5.8-3.8-8-10.5-8.8c-18.6-2.3-36.1-7.1-50.9-17.2C1081.6,567.8,1079,565.9,1074,565.7z
		 M786.9,543.7c4.9-1.4,8.5-3.5,13.2-3.4c16.4,0.3,32.9,0.6,49.3,0.8c15.3,0.2,30.7,0.4,46,0.6c6,0.1,8.7-3.3,9.1-7.1
		c0.5-4.7-5-2.9-8-3.1c-30.3-2.1-60.7-2.8-91.1-2.9C789.8,528.8,788.4,529.9,786.9,543.7z M842.4,429.5c0.6-0.4,1.1-0.8,1.7-1.2
		c-15.6-19.6-31.3-39.1-47.9-59.9c-3.1,9.3-5.6,17.4-8.6,25.3c-1.5,4,0.1,5.9,4.5,7.8c11.3,4.9,22.4,10.1,32.4,16.8
		C830.2,422.1,836.4,425.7,842.4,429.5z M1033.2,493.6c9.5,0.3,9.2,0.4,7.7-7.6c-1-5.6-3.9-11.1-0.7-16.9c1.8-3.4-2.4-3.4-4.8-3.8
		c-9.5-1.5-18.3,6-20.3,17.2c-1.4,7.7,1.9,10.4,14,11.1C1030.5,493.7,1031.9,493.6,1033.2,493.6z M918.5,516.4c2.6-0.6,7.1,0,8-2.8
		c1-2.9-3.5-3.5-6-4.5c-12.4-4.6-25-9-37.5-13.4c-9.6-3.4-10.7-2.9-15.2,5c-1.4,2.5-1.2,3.5,2.3,4c8.6,1.3,16.7,4.1,25,6.5
		C902.6,513.3,910,515.6,918.5,516.4z M726.7,505c-14.8-3.9-29.5-7.9-44.3-11.8c-8.7-2.3-8.7-2.3-8.6,5.4c0,2.2,0.3,4.5-0.4,6.6
		c-2.1,6.1-0.2,7.4,7.5,5.8C695.7,507.8,711.2,508.1,726.7,505z M1060.1,600.1c1.6,6.9,2.9,13,4.5,19.1c4,15.3,4,15.2,22.3,9.5
		c4.5-1.4,5.5-2.7,2.6-6.1C1082,613.6,1073.3,605.9,1060.1,600.1z M1026.7,619.4c-7.9,10.3-8.7,21.5-11.7,32.2c-0.5,1.7,0.6,3,3,3.3
		c4.7,0.6,17.3-8.3,16.3-11.9C1032.1,635,1029.3,627.2,1026.7,619.4z M1089.3,487.6c-0.2-1.4-15-10.1-16.2-9.7
		c-0.7,0.2-1.5,0.7-1.9,1.3c-3.9,5.3-8,10.6-11.5,16.1c-1.6,2.6,0.3,5.3,2.8,7.2c3.2,2.4,4.7-0.8,6.6-1.9
		c5.7-3.4,11.4-6.9,17.1-10.3C1087.5,489.5,1089.4,489.1,1089.3,487.6z M986,469.8c0,0-0.1,0-0.1,0c0-1.3,0.1-2.7,0-4
		c-0.9-10.2-1.1-10.1-12.3-5.3c-6.2,2.6-7,5.3-3.3,9.7c1.8,2.2,3.2,4.6,5,6.8c1.3,1.6,1.8,4.3,4.9,3.8c3.4-0.6,5.4-2.9,5.8-5.8
		C986.2,473.3,986,471.6,986,469.8z M895.7,473.9c13.1,5.5,28.9,6.2,39.8,15.8c-0.6-2.9-2-5.3-2.6-7.8c-1.3-6.3-5.6-8.2-13.3-7.6
		C911.7,474.9,903.8,474.8,895.7,473.9z"/>
</g>
</svg>
