<?xml version="1.0" encoding="UTF-8"?><svg id="Layer_2" xmlns="http://www.w3.org/2000/svg" xmlns:xlink="http://www.w3.org/1999/xlink" viewBox="0 0 1920 1083.09"><defs><style>.cls-1,.cls-2{fill:none;}.cls-3{clip-path:url(#clippath);}.cls-2{stroke:#000;stroke-linecap:round;stroke-miterlimit:10;stroke-width:10px;}</style><clipPath id="clippath"><rect class="cls-1" width="1920" height="1083.09"/></clipPath></defs><g id="Layer_1-2"><g class="cls-3"><path d="M869.66,377.73c-.58-32.77-.26-65.55,.1-98.33,.14-13.04,1.02-26.08,2.03-39.11,.41-5.27-4.62-7.9-10.2-11.67-15.67-10.59-31.44-8.14-51.87-5.45-35.56,4.68-58.75,18.51-81.27,32.47-45.43,28.17-86.88,58.41-131.37,87.13-46.68,30.13-90.27,61.87-134.84,93.09-19.12,13.39-32.43,28.8-42.38,45.12-9.57,15.7-23.74,30.79-27.85,47.21-9.07,36.19-26.15,71.69-28.47,108.47-.26,4.14-1.31,8.29-2.48,12.39-6.21,21.68-13.97,26.03-51.68,28.09-9.66,.53-14.32,3.33-17.64,8.17-18.1,26.43-35.34,52.88-26.96,82.28,1.46,5.13,.97,10.58-.09,15.79-1.87,9.21-10.99,13.18-26.79,11.39-10.09-1.14-15.42,.6-18.43,6.09-7.9,14.44-21.97,27.9-20.32,43.84,.13,1.3-.39,3.42-1.8,3.85-20.88,6.34-19.85,19.57-26.53,29.81-41.65,63.87-81.63,128.11-122.32,192.19-2.05,3.22-2.97,7.02-9.89,9.44-3.88-5.71,.19-10.62,3.1-15.29,16.13-25.85,32.69-51.61,49.14-77.39,21.59-33.85,43.25-67.69,64.8-101.55,5.97-9.37,10.49-19.12,17.69-28.15,14.52-18.2,19.6-37.63,24.93-57.09,1.53-5.57,3.16-11.08,14.99-12.77,4.64-.66,6.23-3.31,7.67-5.68,15.8-25.91,31.74-51.79,47.13-77.79,2.44-4.12,2.4-8.73,3.46-13.12,1.5-6.21,4.75-11.88,13.56-16.04,4.26-2.02,5.94-5.01,7.74-7.87,22.67-35.99,45.12-72.02,68.06-107.95,6.39-10.01,1.24-17.99-10.89-24.89-12.82-7.29-27.95-8.98-45.07-5.34-23.75,5.04-40.97,13.37-54.44,26.45-66.76,64.87-135.17,129.16-203.04,193.64-1.89,1.8-3.62,5.09-7.76,4.01-5.16-1.34-2.29-4.5-.24-6.5,16.64-16.23,33.44-32.4,50.38-48.52,51.07-48.62,102.19-97.23,153.42-145.8,5.9-5.6,8.77-11.47,9.75-18.02,2.2-14.66,11.1-28.71,12.55-43.49,2.56-26.08,6.15-52.05-16.08-76.59-8.15-9-12.83-19.16-17.66-29.02-8.48-17.31-21.94-33.21-39.18-47.99-29.43-25.24-43.37-54.32-61.67-82.29-6.13-9.36-14.3-14.67-33.1-14.7-17.12-.03-34.25-2.24-51.32-3.69-3.44-.29-8.71-.69-7.45-3.8,1.02-2.5,5.46-1.61,8.63-1.42,12.87,.79,25.71,1.72,38.58,2.5,24.76,1.5,39.43-3.16,48.06-16.88,10.36-16.46,16.73-33.68,20.26-51.01,5.63-27.64,4.61-55.43,.39-83.16-1.19-7.84-4.86-15.21-11-22.27-2.62-3.01-9.73-7.85-4.06-9.35,7.68-2.04,8.2,4.58,11.24,7.48,9.76,9.29,11.33,20.02,13.08,30.47,6.37,38.13,3.44,75.96-12.86,113.28-3.8,8.69-9.34,16.9-16.58,24.78-2.87,3.12-11.22,6.64-1.85,9.68,7.82,2.54,17.54,3.52,24.65-1.82,7.34-5.51,13.86-11.31,18.53-17.77,26.32-36.36,37.38-73.84,25.35-113.11-2.48-8.09-12.26-15-13.53-22.67-2.67-16.1-22.48-24.52-39.62-34.43-22.75-13.14-45.62-26.22-68.3-39.41-2.81-1.63-8.75-3.69-5.27-5.95,4.52-2.94,8.46,.64,11.57,2.39,34.35,19.35,70.05,38,102.31,58.46,25.58,16.22,56.61,19.32,90.17,16.65,46.81-3.72,91.61-11.92,132.32-26.47,5.68-2.03,11.73-3.95,18.06-5.07,25.71-4.55,37.71-19.34,59.91-26.62,5.49-1.8,.13-6.77,.31-10.28,.16-3.09-3.65-8.16,2.84-8.72,7.48-.65,6.13,4.7,6.4,7.66,.88,9.79,6.35,18.13,18.53,25.24,18.16,10.62,33.73,22.63,55.44,31.26,49.61,19.72,103.8,17.96,159.34,12.84,23.94-2.21,40.31-8.41,52.7-20.97,17.55-17.8,38.73-34.39,58.37-51.5,1.33-1.16,2.6-2.35,4.14-3.4,2.13-1.45,4.51-3.42,8.22-1.81,2.97,1.29,.79,3.07-.49,4.49-1.78,1.96-3.73,3.89-5.85,5.74-21.74,18.97-42.36,38.42-65.74,56.69-14.5,11.34-13.16,23.18-2.3,32.6,25.7,22.28,58.72,39.75,109.9,39.09,8.46-.11,15.69-1.42,22.9-4.04,104.8-38.05,209.74-75.98,314.64-113.94,18.29-6.62,36.52-13.29,54.89-19.85,3.55-1.27,8.75-3.33,11.53-.8,3.3,3-3.45,4.05-6.58,5.19-58.01,21.15-116.15,42.18-174.28,63.22-67.88,24.56-135.7,49.18-203.76,73.56-10.64,3.81-16.45,8.91-19.22,15.73-4.96,12.21-5.88,24.73-9.01,37.08-1.4,5.52,1.78,7.84,12.13,5.74,59.68-12.1,120.43-22.32,179.73-35.22,31.61-6.88,65.07-11.28,97.35-17.46,34.59-6.63,69.25-13.14,103.91-19.65,7.09-1.33,13.02-3.48,17.08-7.17,6.13-5.57,14.93-6.82,25.02-4.57,11.01,2.47,19.99,.65,27.29-4.01,10.3-6.57,22.57-8.96,37.53-7.46,8.19,.82,16.09-.05,24.01-1.58,137.38-26.46,275.06-52.41,411.84-79.91,39.4-7.92,79.05-15.42,118.61-23.08,6.58-1.27,13.26-2.84,20.25-.59-1.3,3.33-5.93,3.2-9.22,3.85-97.07,19.22-194.12,38.49-291.36,57.43-26.95,5.25-27.84,5.03-28.62,21.88-.81,17.31,6.97,34.14,9.18,51.29,.65,5.05,5.22,13.73-2.33,14.19-9.4,.57-5.4-7.91-6.1-12.22-3.3-20.37-13.78-40.33-8.94-61.2,1.94-8.39-9.25-5.54-15.21-3.4-30.32,10.87-63.5,18.34-95.38,27.31-24.68,6.95-50.76,13.04-78.57,11.88-31.97-1.33-60.33,4.98-89.38,10.53-.46,.09-.89,.22-1.35,.29-29.06,4.34-54.89,11.42-76.96,24.02-35.12,20.05-78.56,26.88-127.17,21.96-37.13-3.75-68.42,4.27-98.42,15.55-31.22,11.74-55.99,27.77-83.73,41.82-16.39,8.3-35.31,12.59-56.99,10.25-12.53-1.35-14.95,1.41-14.9,7.75,.18,25.83,.05,51.66-.39,77.49-.32,19.15-.95,38.3-2.19,57.44M243.62,251.34c30.81,33.03,55.14,65.96,70.75,101.08,15.64,35.2,24.46,70.78,22.79,109.25,4.14-2.7,5.57-3.41,6.5-4.28,19.62-18.4,39.18-36.83,58.79-55.24,3.86-3.62,5.61-7.47,6.29-11.75,4.03-25.27-11.01-48.13-27.35-70.6-12.29-16.91-32.51-31.34-49.26-46.83-10.23-9.46-24.89-16.93-45.71-18.44-13.26-.96-26.5-1.97-42.8-3.19Zm18.4,280.95c9.17-5.87,15.61-11.51,17.88-15.97,16.22-31.85,22.93-64.21,11.65-97.07-19.65-57.25-58.91-110.03-111.3-159.68-2.98-2.82-6.61-5.49-10.55-7.89-9.48-5.77-17.57,.98-26.37,1.48-5.17,.29-2.39,3.7-1.08,5.58,18.11,25.94,31.5,53.07,58.63,76.72,12.46,10.87,24.84,21.94,31.62,34.47,10.76,19.87,22.11,39.57,36.34,58.72,4.92,6.61,5.87,13.93,6.04,21.23,.65,27.17,.56,54.3-12.87,82.39ZM195.38,76.75c3.74,10.5,13.24,17.61,15.15,26.2,10.27,46.07,1.26,90.17-40.46,130.8-5.08,4.95-2.12,6.29,5.83,6.86,15.19,1.08,30.49,1.81,45.55,3.34,9.37,.95,13.51-1.1,17.79-5.67,23.86-25.48,31.28-52.77,27.58-81.28-2.75-21.24-9.61-41.88-32.14-59.52-9.89-7.74-21.26-14.76-39.29-20.71Zm101.59,420.8c15.79-9.96,28.8-20.41,29.84-33.75,1.21-15.5,2.02-31.04-.78-46.53-6.25-34.64-20.52-68.27-39.6-101.17-11.58-19.98-26.74-39.19-45.08-57.46-2.74-2.73-6.2-7.02-12.82-4.99-13.81,4.25-27.28,4.6-41.86,.28,11.3,15.99,27.8,29.08,40.18,43.46,20.97,24.35,37.95,49.68,53.62,75.3,20.56,33.62,30.87,68.04,22.64,103.77-1.63,7.06-4.07,14.06-6.13,21.09ZM226.56,82.27c18.57,15.57,40.34,23.49,70.57,22.73,12.45-.31,24.88-.35,37.16-1.73,65.67-7.41,124.03-21.35,157.02-58.35,2.86-3.21,3.82-6.24,2.71-9.55-.77-2.3,.13-5.52-5.11-6.28-4.06-.59-7,1.55-9.56,3.14-32.11,19.91-75.32,29.23-116.85,39.41-42.06,10.32-86.65,15.98-135.93,10.63Zm270.6-31.15c-1.45-.33-2.91-.67-4.36-1-19.22,24.6-52.95,38.59-95.14,47.79-40.89,8.92-82.24,13.29-128.91,10.19,11.5,6.03,17.53,12.63,29.94,14.44,36.73,5.36,74.15,4.81,111.55,3.61,5.1-.16,10.48-1.29,15.02-2.73,26.55-8.38,52.1-17.65,74.15-29.82,3.2-1.76,6.12-3.6,5.51-6.43-2.57-12.02-5.17-24.04-7.76-36.05Zm-184.01,90.91c-1.11,3.93,1.65,6.33,3.31,8.84,14.39,21.73,24.15,43.59,13.11,67.18-4.44,9.49-11,18.28-18.37,26.94-3.43,4.04-1.59,5.57,5.34,6.07,18.97,1.38,37.95,2.74,56.92,4.12,9.43,.68,14.76-2.33,16.65-7.1,5.14-12.96,10.06-26.08,8.85-39.39-.85-9.38-4.57-19.32-15.71-26.32-21.95-13.79-45.87-26.53-70.08-40.33Zm-51.64-28.17c7.41,12.16,9.74,24.46,11.12,36.83,2.99,26.69,3.68,53.05-18.33,77.99-14.58,16.51-13.35,16.88,18.87,19.5,2.85,.23,5.82,.25,8.5,.77,9.32,1.79,15.49-.03,20.12-4.92,20.88-22.07,31.18-44.67,17.93-70-6.25-11.95-14.25-23.51-20.37-35.46-5.83-11.37-21.67-18.02-37.85-24.71Zm49.45,16.29c22.66,13.66,45.88,27.85,69.54,41.78,5.18,3.05,11.56,1.07,17.42-.35,38.18-9.27,67.75-24.96,92.37-43.56,10.44-7.89,19.39-17.45,14.68-29.18-83.98,35.85-74.8,36.28-194.03,31.31Zm201.09-75.52c-1.34,.66-2.68,1.33-4.02,1.99,1.88,9.33,4.23,18.63,5.5,27.99,1.01,7.45,7.18,11.54,19.59,13.28,25.24,3.53,48.78,9.89,73.07,15.02,24.21,5.11,47.81,11.67,74.05,12.93,9.43,.45,21.09,2.08,27.41-1.93,10.71-6.79,18.43-15.15,29.89-24.97-22.07,2.84-39.69,5.49-57.97,3.09-21.96-2.88-44.04-5.46-66.12-8.04-34.78-4.06-65.4-12.11-86.9-29.38-4.38-3.52-9.64-6.66-14.5-9.98Zm-189,202.23c50.1,38.95,91.97,78.22,96.29,127.57,17.98-11.82,25.16-25.32,19.73-39.68-10.13-26.81-23.72-53.11-47.61-77.18-2.72-2.74-6.13-5.35-11.54-5.87-18.2-1.75-36.49-3.13-56.88-4.83Zm519.74-95.73c-33.36-5.05-52.32-17.29-68.63-31.39-4.53-3.91-8.73-8.04-14.17-11.49-6.29-3.99-9.2-12.31-17.46-11.68-6.5,.5-11.18,8.2-17.02,12.55-9.5,7.08-14.5,14.45-10.84,23.82,5.94,15.21,42.69,35.73,69.26,37.77,3.17,.24,5.66-.34,8.09-1.22,15.81-5.69,31.57-11.41,50.77-18.36Zm-333.67-42.36c-6.23,7.97-12.07,13.11-19.51,17.87-24.9,15.96-51.21,30.64-86.97,38.25-9.16,1.95-9.07,4.54-2.2,8.26,10.83,5.86,21.07,12.08,31.59,18.14,13.52,7.78,17.68,7.7,30.96-.77,18.87-12.03,31.82-26.22,43.96-40.69,10.59-12.63,8.82-25.56,2.17-41.06Zm17.99,33.52c4.19,19.51,7.87,36.69,11.58,53.88,.88,4.08,5.4,5.61,12.01,5.55,20.71-.21,41.09-1.6,60.28-6.47,3.38-.86,7.02-2.15,9.07-3.85,9.87-8.17,19.28-16.53,28.76-24.86,1.54-1.35,3.69-2.9,1.71-4.54-1.89-1.57-5.13-1.09-7.95-.96-40.95,1.94-80.29,.18-115.45-18.74Zm221.51,83.5c-15.52,2.37-30.33,3.85-38.95,12.61-6.66,6.77-15.39,12.65-24.39,18.48-41.54,26.87-82.04,54.2-126.41,79.66-38.16,21.89-67.23,48.39-97.54,74.05-6.01,5.09-9.81,11.06-14.63,16.62,1.01,.36,2.02,.72,3.03,1.08,95.18-69.31,197.28-135.16,298.89-202.51ZM301.33,507.91c30.06-5.02,51.11,2.6,71.65,10.9,5.13,2.08,9.66,5.96,13.59-.25,9.68-15.32,19.04-30.71,28.58-46.05,2.28-3.67,.22-5.67-6.32-6.71-24.65-3.9-63.4,2.98-78.05,14.79-10.24,8.26-18.7,17.26-29.45,27.32ZM519.97,117.81c3.85,9.54,.28,19.55,11.3,27.99,22.28,17.07,92.71,27.4,127.83,18.34,7.87-2.03,14.18-6.52,13.89-10.79-.3-4.54-10.28-1.51-15.59-2.71-2.2-.5-4.62-.7-6.98-.91-47.52-4.21-86.48-19.94-130.45-31.91Zm-173.64,347.43c24.06-5.35,44.58-6.43,65.19-4.9,8.82,.66,12.17-1.13,14.62-5.37,4.11-7.1,7.93-14.31,13.17-21.13,8.82-11.49,.73-21.24-8.84-30.61-4.32-4.23-11.65-6.12-17.94-.19-21.28,20.06-42.64,40.08-66.2,62.2Zm172.76-305.3c-18.34,18.39-33.03,37.13-61.72,50.37-4.82,2.23-1.95,4.42,1.31,6.3,11.52,6.66,23.19,13.23,34.57,19.97,4.9,2.9,8.78,2.28,13.41-.21,13.72-7.37,22.27-16.84,21.6-27.18-1.06-16.46-5.92-32.84-9.17-49.25Zm152.97-13.19c9.4,1.23,14.88-3.68,20.73-8.66,5.77-4.92,5.48-7.39-6.19-7.18-18.56,.35-35.7-3.09-52.97-6.58-33.38-6.74-65.19-16.05-99.88-20.62-4.61-.61-10.66-3.74-14.11-.12-3.31,3.47,2.95,5.98,6.59,8.44,1.54,1.04,3.33,2.08,5.38,2.72,31.03,9.78,61.57,20.24,95.39,26.53,13.57,2.52,27.54,4.72,45.06,5.46Zm27.05,100.01c-44.61,23.23-89.98,45.92-128.85,72.63-38.56,26.49-77.47,52.69-101.27,84.97,2.5-.25,3.92-.96,4.98-1.82,34.06-27.84,68.9-55.11,112.56-78.55,29.36-15.77,54.12-34.41,81.1-51.68,12.12-7.76,25.74-14.82,31.5-25.55Zm-320.47,303.31l-1.91-.33c-8.59,13.71-17.16,27.42-25.76,41.12-15.54,24.74-31.13,49.46-46.61,74.22-1.68,2.69-5.4,5.76,3.61,6.95,17.34,2.28,33.02-2.1,40.1-11.62,3.24-4.36,5.08-8.94,5.84-13.67,4.2-25.91,6.78-51.94,19.26-77.19,3.1-6.28,3.71-12.97,5.47-19.47ZM1016.96,184.47c-8.62,1.58-17.26,3.12-25.86,4.73-32.83,6.16-65.62,12.38-98.48,18.5-17.02,3.17-9.97,11.3-10.61,17.6-.58,5.76,7.77,6.03,15.09,6.58,18.66,1.39,35.53-1.35,49.66-8.31,24.71-12.17,45.88-26.57,70.21-39.1Zm-313.91-43.64c-3.32,.3-4.4,1.98-6.11,3.26-17.66,13.18-18.93,32.85-3.01,46.63,12.46,10.79,31.14,13.11,49.89,6.19,6.06-2.23,12.38-4.26,18.13-6.73,9.93-4.28,9.23-6.22-1.52-9.65-25.37-8.1-47.33-18-53.06-35.89-.51-1.58-.64-3.4-4.32-3.81Zm-205.64,218.6c53.65-38.86,112.34-75.05,176.28-108.45-1.82-.96-3.63-1.93-5.45-2.89-70.6,29.86-142.52,59.02-170.83,111.34Zm-33.2-16.53c7.3-6.68,14.31-13.47,21.99-20,4.97-4.22,6.55-8.68,4.42-13.42-4.11-9.11-7.56-18.41-13.59-27.1-6.13-8.82-18.54-14.66-35.11-16.48-9.75-1.07-13.99,1.23-8.81,6.98,5.12,5.68,8.41,11.72,11.64,17.84,8.9,16.9,16.69,33.9,19.47,52.18ZM505.89,35.44c-2.63,5.74-.63,9.45,5.25,12.94,14.01,8.33,27.57,16.92,41.35,25.39,6.3,3.87,13.32,6.85,22.5,8.48,32.09,5.68,64.79,9.81,97.63,13.64,14.66,1.71,29.7,2.11,44.28,.57,10.88-1.15,23.27-1.13,31.26-6.93,2.29-1.66,5.67-3.64,3.06-5.9-2.1-1.82-6.19-1.08-9.4-.74-10.83,1.15-21.57,2.58-32.42,3.63-73.6,7.16-135.03-5.14-183.33-38.49-6.05-4.18-12.82-8.01-20.19-12.59Zm333.65,134.3c-15.18,3.66-27.46,7.57-36.32,13.02-15.42,9.47-28.4,20.33-28.32,34.39,.02,4.45,2.68,7,11.45,5.3,12.71-2.47,25.43-4.93,38.26-7.17,7.9-1.38,10.95-4.34,9.41-8.79-4.15-11.99-.7-23.64,5.52-36.75Zm-216.93,43.56c-.09,6.59,3.3,11.71,8.2,16.54,3.49,3.43,8.54,4.38,14.54,2.26,13.86-4.89,27.57-9.92,41.39-14.84,3.44-1.23,5.29-2.48,1.48-4.43-14.67-7.52-20.53-17.72-25.71-28.16-.75-1.5-.81-3.68-4.23-3.98-4.02-.35-5.44,1.87-7.22,3.42-8.18,7.14-16.13,14.36-24.46,21.43-3.16,2.68-4.14,5.52-3.99,7.75Zm259.23-66.87c-57.05-7.01-101.16-23.11-120.46-57.35-8.36,4.66-12.25,9.52-5.96,15.59,15.27,14.73,30.37,29.85,53.56,40.75,28.54,13.42,47.94,13.56,72.86,1.01Zm-478.04,48.28c4.12,10.46,6.02,19.39,3.01,28.49-2.96,8.95-3.88,18.21-8.18,26.92-3.69,7.46,2.27,8.12,11.74,8.12,9.05,0,13.67-3.56,17.31-7.55,18.71-20.52,10.84-40.82-23.88-55.98Zm479.02-40.14c-12.94,3.11-24.44,5.54-30.18,11.93-10.16,11.33-13.18,23.61-10.34,36.27,.63,2.82,.78,7.14,7.95,6.58,7.93-.62,19.89-.04,20.92-6.36,2.59-15.86,6.07-31.64,11.65-48.42Zm-433.92,62.19c-1.43,.55-2.86,1.1-4.3,1.65,.07,11.94,.19,23.98-9.58,34.85-4.5,5-3.48,7.03,6.56,6.99,3.31-.01,6.63,.66,9.95,.65,16.45-.07,21.6-7.49,28.17-14.3,5.82-6.05,.47-9.71-6.15-13.74-8.52-5.2-16.46-10.72-24.65-16.1Zm158.41-4.01c-14.46,1.24-25.13,2.5-35.9,3.02-31.57,1.52-31.36,1.38-27.08,19.81,.97,4.17,3.9,6.5,10.65,7.72,6.7,1.21,13.9,2.25,18.48-1.44,11.21-9.04,21.55-18.44,33.85-29.1Zm658.63-73.29c-.43-.75-.87-1.5-1.3-2.25-43.58,8.28-87.17,16.56-134.12,25.47,55.77,7.12,98.24-3.23,135.42-23.23ZM370.14,541.23c12.03-11.55,10.63-15.66-8.44-21.83-8.76-2.84-18.04-5.16-27.22-7.55-19.12-4.97-46.79,3.97-51.61,16.59,49.62-9.83,56.17-8.87,87.26,12.79Zm81.49-193.51c1.27-27.04-10.55-50.84-27.37-74-2.02-2.78-4.46-5.56-7.6-7.95-2.88-2.19-8.02-2.55-11.76-1.18-4.59,1.68-.85,3.95,.74,5.79,20.84,24.13,34.04,49.78,45.99,77.34Zm-1.89,65.76c7.54-9.05,15.48-17.67,16.54-27.55,.49-4.52-2.68-8.25-10.82-9.65-6.79-1.16-13.69-1.31-17.7,2.91-4.41,4.64-13.09,8.24-11.11,14.52,.07,.23,.53,.5,.92,.62,13.06,4.05,15.78,12.01,22.17,19.14Zm304.07-213.53c-6.62,2.23-12.04,4.45-18,5.99-13.09,3.37-18.17,9.48-18.05,17.22,.06,3.83-2.52,8.9,6.99,10.41,8.79,1.39,28.52-4.98,28.87-9.3,.65-7.87,.18-15.77,.18-24.31Zm-140.96,17.79c-10.74,9.38-19.94,17.4-29.09,25.43-2.14,1.87-4.37,3.89-.89,5.97,3.83,2.28,8.46,2.45,13.05,.85,8.98-3.13,17.87-6.34,26.74-9.57,3.44-1.25,5.72-2.61,3.35-5.4-4.35-5.13-8.02-10.45-13.16-17.27Zm-117.42,106.76c-10.95,10.34-22.2,19.56-30.7,29.56-4.62,5.43,7.9,6.65,13.05,9.1,5.48,2.6,6.61-1.81,7.93-3.74,4.73-6.95,9.34-13.94,13.09-21.07,2.16-4.11,3.03-8.57-3.37-13.85Zm125.17-64.1c-46.39,6.58-65.61,29.56-91.41,48.57,32.17-15.16,58.16-34.11,91.41-48.57ZM255.68,747.59c-.76-.13-1.52-.26-2.27-.39-7.36,11.43-14.83,22.84-22.03,34.3-3.82,6.07-.29,8.75,10.83,8.69,9.97-.05,13.34-3.61,13.42-8.63,.17-11.32,.05-22.65,.05-33.97Zm244.34-438.66c11.63-9.99,11.1-24.14,.37-33.86-5.87-5.32-13.67-7.13-25.64-5.07,14.86,11.48,17.21,25.21,25.27,38.93Zm188.85-71.96c-.52-3.03-.96-6.06-1.6-9.08-.42-1.97-2.36-3.37-5.76-2.12-11.31,4.13-24.13,7.09-33.42,12.8-5.56,3.42-2.11,9.66,4.18,8.88,11.63-1.45,22.88-3.99,34.18-6.26,3.22-.64,3.41-2.48,2.43-4.22ZM1534.24,85.81c-34.35,6.63-68.7,13.25-103.06,19.88,39.18,1.73,71.29-8.95,103.06-19.88Zm-862.08,80.47c-5.86,11.79,6.6,35.2,19.68,40.83,2.6,1.12,5.91,1.8,9.07,2.34,3.88,.66,8.45,.52,9.84-1.92,1.37-2.42-3.4-2.94-6.16-3.78-14.1-4.32-21.86-11.31-25.51-20.05-2.12-5.07-4.04-10.16-6.91-17.41Z"/><path class="cls-2" d="M263.36,529.23s-55.3-4.04-81.33,23.15,2.33,74.74-33.56,93.15-65.38,1.16-101.82,35.87S0,740.2,0,740.2"/><path class="cls-2" d="M328.99,146.47s-70.21-1.77-103.27,10.13c-33.06,11.9,2.96,32.72-42.61,40.78-45.56,8.06-83.01,.51-129.29,15.7-46.28,15.2-59.23,25.74-59.23,25.74"/><path d="M125.02,231.4c3.01-25.6,7.07-51,11.65-76.29,6.18-34.12,12.9-68.13,20.13-102.03,1.78-8.32-1.64-12.81-23.55-15.43"/><path d="M107.43,159.93c-1.02-32.77-.46-65.55,.17-98.33,.25-13.04,1.79-26.08,3.56-39.11,.72-5.27-8.11-7.9-17.92-11.67"/></g></g></svg>