<?xml version="1.0" encoding="UTF-8"?><svg id="Layer_2" xmlns="http://www.w3.org/2000/svg" viewBox="0 0 45.1 45.1"><defs><style>.cls-1{fill:#fff;}.cls-2{stroke-width:2px;}.cls-2,.cls-3{fill:none;stroke:#000;stroke-miterlimit:10;}</style></defs><g id="Layer_1-2"><g><path class="cls-1" d="M22.55,44.1C10.67,44.1,1,34.43,1,22.55S10.67,1,22.55,1s21.55,9.67,21.55,21.55-9.67,21.55-21.55,21.55Z"/><path d="M22.55,2c11.33,0,20.55,9.22,20.55,20.55s-9.22,20.55-20.55,20.55S2,33.88,2,22.55,11.22,2,22.55,2M22.55,0C10.1,0,0,10.1,0,22.55s10.1,22.55,22.55,22.55,22.55-10.1,22.55-22.55S35,0,22.55,0h0Z"/></g><line class="cls-2" x1="22.55" x2="22.55" y2="44.5"/><line class="cls-2" y1="22.55" x2="44.99" y2="22.55"/><line class="cls-2" x1="5.36" y1="37.15" x2="39.73" y2="7.95"/><line class="cls-2" x1="6.11" y1="7.12" x2="38.98" y2="37.99"/><path class="cls-3" d="M22.54,31.02s1.59-3.36,5.97-2.84c0,0-.79-5.26,2.82-5.82,0,0-3.82-.89-2.33-5.28,0,0-4.25,.86-6.39-3.39,0,0-1.8,5.34-6.32,3.02,0,0,1.93,4.18-2.19,5.86,0,0,3.58,2.69,2.18,5.31,0,0,5.6-.46,6.26,3.14Z"/><path class="cls-2" d="M22.47,40.13s3.27-6.94,12.32-5.87c0,0-1.84-10.55,5.6-11.71,0,0-7.04-2.73-3.96-11.8,0,0-11.45,1.59-13.81-6.39,0,0-3.7,11.01-13.04,6.23,0,0,3.99,8.63-4.52,12.09,0,0,7.38,5.55,4.49,10.96,0,0,11.56-.96,12.91,6.48Z"/></g></svg>